<svg width="24" height="24" viewBox="0 0 24 24" xmlns="http://www.w3.org/2000/svg" xmlns:xlink="http://www.w3.org/1999/xlink"><defs><radialGradient fx="50%" fy="50%" r="48.667%" id="a"><stop stop-color="#FFC400" offset="0%"/><stop stop-color="#FFC400" offset="84.792%"/><stop stop-color="#FFB700" offset="100%"/></radialGradient><radialGradient cx="10.956%" cy="64.355%" fx="10.956%" fy="64.355%" r="56.514%" id="b"><stop stop-color="#E85422" offset="0%"/><stop stop-color="#E85422" stop-opacity="0" offset="100%"/></radialGradient><radialGradient cx="56.956%" cy="106.356%" fx="56.956%" fy="106.356%" r="39.878%" id="d"><stop stop-color="#E85422" offset="0%"/><stop stop-color="#E85422" stop-opacity="0" offset="100%"/></radialGradient><circle id="c" cx="16" cy="10" r="4"/><radialGradient cx="88.2%" cy="11.315%" fx="88.2%" fy="11.315%" id="e"><stop stop-color="#9699C8" offset="0%"/><stop stop-color="#9599CA" stop-opacity="0" offset="100%"/></radialGradient><radialGradient cx="8.171%" cy="-6.535%" fx="8.171%" fy="-6.535%" r="63.588%" id="f"><stop stop-color="#9699C8" offset="0%"/><stop stop-color="#9599CA" stop-opacity="0" offset="100%"/></radialGradient><linearGradient x1="50%" y1="5.529%" x2="50%" y2="95.681%" id="g"><stop stop-color="#C7DEF3" offset="0%"/><stop stop-color="#C0D7EE" offset="100%"/></linearGradient><radialGradient cx="88.2%" cy="11.315%" fx="88.2%" fy="11.315%" id="h"><stop stop-color="#839DC7" offset="0%"/><stop stop-color="#6D93CA" stop-opacity="0" offset="100%"/></radialGradient><radialGradient cx="16.215%" cy=".134%" fx="16.215%" fy=".134%" id="i"><stop stop-color="#839DC7" offset="0%"/><stop stop-color="#6D93CA" stop-opacity="0" offset="100%"/></radialGradient><linearGradient x1="50%" y1="5.529%" x2="50%" y2="121.322%" id="j"><stop stop-color="#C7DEF3" offset="0%"/><stop stop-color="#C0D7EE" offset="100%"/></linearGradient></defs><g fill="none" fill-rule="evenodd"><circle fill="url(#a)" cx="16" cy="10" r="4"/><path d="M14.124 2.997l.388 1.449-.388-1.449zM17.488 15.554l.388 1.449-.388-1.449zM19.625 3.721l-.75 1.3.75-1.3zM13.125 14.98l-.75 1.299.75-1.3zM9.721 6.375l1.3.75-1.3-.75zM20.98 12.875l1.299.75-1.3-.75zM23.003 8.124l-1.449.388 1.449-.388zM10.446 11.488l-1.449.388 1.449-.388z" stroke="#F7BD00" stroke-width="1.5" stroke-linecap="round" stroke-linejoin="round"/><g opacity=".5"><use fill="url(#b)" xlink:href="#c"/><use fill="url(#d)" xlink:href="#c"/></g><circle fill="url(#e)" opacity=".2" cx="6" cy="15" r="4"/><circle fill="url(#f)" opacity=".2" cx="16.5" cy="16.5" r="2.5"/><path d="M6 19a4 4 0 1 1 1.196-7.818 4.502 4.502 0 0 1 8.751 2.008A3 3 0 1 1 17 19H6z" fill="url(#g)"/><circle fill="url(#h)" opacity=".2" cx="6" cy="15" r="4"/><circle fill="url(#i)" opacity=".2" cx="17" cy="16" r="3"/><circle fill="url(#j)" cx="11.5" cy="12.5" r="4.5"/></g></svg>
