<svg xmlns="http://www.w3.org/2000/svg" viewBox="0 0 60 23" width="60" height="23"><path d="M31.44 18.25h-1.11V6H23.8v1.2c0 3.74-.14 8.08-1.42 11.06h-.87v4.55h1.95v-2.76h6.02v2.76h1.95v-4.55zm9.1-.83c-.56.39-1.53.94-2.76.94-1.73 0-2.62-1.67-2.62-4.85h5.86v-1.2c0-4.76-1.54-6.51-3.88-6.51-2.98 0-4.24 3.28-4.24 7.8 0 4.32 1.79 6.63 4.69 6.63 1.39 0 2.56-.45 3.45-1.14l-.5-1.67zM18.01 5.99v5.74h-3.24V6H12.6v14.05h2.17v-6.52h3.24v6.52h2.14V5.99h-2.14zm30.9 14.03h2.36l-3.98-7.44 3.48-6.6h-2.2l-3.37 6.49v-6.5L43.13 6v14.04l2.07-.02v-7l3.7 7zm10.53-.84l-.5-1.62c-.5.45-1.3.86-2.37.86-1.75 0-2.59-2-2.59-5.51 0-3.54 1.12-5.3 2.68-5.3.89 0 1.72.48 2.31.98l.3-2.06a4.42 4.42 0 0 0-2.59-.73c-3.28 0-4.99 2.82-4.99 7.22 0 4.8 1.82 7.22 4.83 7.22 1.28 0 2.17-.42 2.92-1.06zm-31.2-.95H24.5c1.17-2.98 1.31-7.3 1.31-10.26v-.25h2.43v10.51zm10.5-6.5h-3.6c.15-2.5.62-4.15 1.96-4.15 1.25 0 1.64 1.76 1.64 4.15zm-30.77.65v7.64h2.14V0h-3.2C3.76 0 1.14 1.9 1.14 5.89c0 3.54 1.14 5.07 2.9 5.96L.3 20.02h2.48l3.4-7.64h1.79zm0-1.8H6.81c-1.87 0-3.37-.97-3.37-4.53 0-3.09 1.64-4.32 3.37-4.32h1.14v8.85z"/></svg>