<svg width="24" height="24" viewBox="0 0 24 24" xmlns="http://www.w3.org/2000/svg"><defs><radialGradient cx="88.2%" cy="11.315%" fx="88.2%" fy="11.315%" id="a"><stop stop-color="#9699C8" offset="0%"/><stop stop-color="#9599CA" stop-opacity="0" offset="100%"/></radialGradient><radialGradient cx="8.171%" cy="-6.535%" fx="8.171%" fy="-6.535%" r="63.588%" id="b"><stop stop-color="#9699C8" offset="0%"/><stop stop-color="#9599CA" stop-opacity="0" offset="100%"/></radialGradient><linearGradient x1="50%" y1="5.529%" x2="50%" y2="95.681%" id="c"><stop stop-color="#C7DEF3" offset="0%"/><stop stop-color="#C0D7EE" offset="100%"/></linearGradient><radialGradient cx="88.2%" cy="11.315%" fx="88.2%" fy="11.315%" id="d"><stop stop-color="#839DC7" offset="0%"/><stop stop-color="#6D93CA" stop-opacity="0" offset="100%"/></radialGradient><radialGradient cx="16.215%" cy=".134%" fx="16.215%" fy=".134%" id="e"><stop stop-color="#839DC7" offset="0%"/><stop stop-color="#6D93CA" stop-opacity="0" offset="100%"/></radialGradient><linearGradient x1="50%" y1="5.529%" x2="50%" y2="121.322%" id="f"><stop stop-color="#C7DEF3" offset="0%"/><stop stop-color="#C0D7EE" offset="100%"/></linearGradient></defs><g fill="none" fill-rule="evenodd"><circle fill="url(#a)" opacity=".2" cx="7" cy="12" r="4"/><circle fill="url(#b)" opacity=".2" cx="17.5" cy="13.5" r="2.5"/><path d="M7 16a4 4 0 1 1 1.196-7.818 4.502 4.502 0 0 1 8.751 2.008A3 3 0 1 1 18 16H7z" fill="url(#c)"/><circle fill="url(#d)" opacity=".2" cx="7" cy="12" r="4"/><circle fill="url(#e)" opacity=".2" cx="18" cy="13" r="3"/><circle fill="url(#f)" cx="12.5" cy="9.5" r="4.5"/><path d="M16.5 18.5l-.94 1.878M12.5 17.5l-.94 1.878M8.5 18.5l-.94 1.878" stroke="#84C5F2" stroke-width="1.5" stroke-linecap="round" stroke-linejoin="round"/></g></svg>
