<svg width="24" height="24" viewBox="0 0 24 24" xmlns="http://www.w3.org/2000/svg"><defs><radialGradient fx="50%" fy="50%" id="a"><stop stop-color="#FF8E27" offset="0%"/><stop stop-color="#FFC849" stop-opacity="0" offset="100%"/></radialGradient><radialGradient fx="50%" fy="50%" r="48.667%" id="b"><stop stop-color="#FFC400" offset="0%"/><stop stop-color="#FFC400" offset="84.792%"/><stop stop-color="#FFB700" offset="100%"/></radialGradient></defs><g fill="none" fill-rule="evenodd"><path d="M12 21a9 9 0 1 1 0-18 9 9 0 0 1 0 18zm0-3a6 6 0 1 0 0-12 6 6 0 0 0 0 12z" fill="url(#a)" opacity=".334"/><circle fill="url(#b)" cx="12" cy="12" r="5"/><path d="M16.04 2.135l-1.175 2.837 1.175-2.837zM9.194 18.663L8.02 21.499l1.175-2.836zM21.712 7.808l-2.836 1.175 2.836-1.175zM5.185 14.654L2.35 15.829l2.836-1.175zM21.712 15.83l-2.836-1.175 2.836 1.175zM5.185 8.984L2.35 7.81l2.836 1.175zM8.018 2.135l1.175 2.837-1.175-2.837zM14.864 18.663l1.175 2.836-1.175-2.836z" stroke="#F7BD00" stroke-width="1.5" stroke-linecap="round" stroke-linejoin="round"/></g></svg>
